<!-- <svg width="46" height="55" viewBox="0 0 46 55" fill="none" xmlns="http://www.w3.org/2000/svg">
<g clip-path="url(#clip0)">
<path d="M19.6667 55C8.82205 55 0 46.2504 0 35.4968C0 24.7431 8.82292 15.9935 19.6667 15.9935C30.5105 15.9935 39.3334 24.7431 39.3334 35.4968C39.3334 46.2504 30.5122 55 19.6667 55ZM19.6667 17.8563C9.8587 17.8563 1.87839 25.7686 1.87839 35.4959C1.87839 45.2233 9.8587 53.1355 19.6667 53.1355C29.4747 53.1355 37.4559 45.2215 37.4559 35.4942C37.4559 25.7668 29.4765 17.8563 19.6667 17.8563Z" fill="#2196F3"/>
<path d="M33.9387 36.3618C33.3269 34.1133 27.7188 33.8706 24.3807 34.6949C22.6326 35.1283 20.846 35.6917 19.0034 36.0159C20.3521 37.2026 21.8005 38.3251 23.879 38.6042C29.0361 39.2942 32.2404 37.6898 33.9387 36.3618Z" fill="#2196F3"/>
<path d="M23.8788 38.6042C21.7959 38.3251 20.3519 37.2026 19.0032 36.016C16.9159 34.1792 15.0594 32.189 11.4154 32.9379C5.62198 34.1289 4.85978 40.9247 9.3333 45.2917C11.254 47.2864 13.7197 48.6822 16.4284 49.3079C19.137 49.9336 21.9709 49.7621 24.5828 48.8144C27.1946 47.8667 29.4709 46.1839 31.1327 43.9724C32.7945 41.7608 33.7696 39.1165 33.9385 36.3635C32.2402 37.6898 29.0358 39.2942 23.8788 38.6042Z" fill="#673AB7"/>
<path d="M26.9105 23.8962C26.1876 25.4331 32.6321 27.1381 33.4031 32.2419C33.7746 27.2178 27.8046 21.9962 26.9105 23.8962Z" fill="#2196F3"/>
<path d="M13.3649 30.3107C14.5267 29.8335 15.0784 28.5126 14.5972 27.3604C14.116 26.2083 12.784 25.6611 11.6222 26.1384C10.4604 26.6156 9.90867 27.9365 10.3899 29.0887C10.8712 30.2408 12.2031 30.7879 13.3649 30.3107Z" fill="#673AB7"/>
<path d="M18.5351 24.1103C19.0786 23.5714 19.0786 22.6977 18.5351 22.1587C17.9917 21.6198 17.1106 21.6198 16.5672 22.1587C16.0238 22.6977 16.0238 23.5714 16.5672 24.1103C17.1106 24.6492 17.9917 24.6492 18.5351 24.1103Z" fill="#2196F3"/>
<path d="M23.4513 15.2376C25.4617 9.3485 24.1103 4.64345 19.9786 2.40881C17.1544 2.97831 15.4779 4.334 14.5444 6.20544C20.0843 5.76077 23.5999 9.1994 23.4513 15.2376Z" fill="#2196F3"/>
<path d="M46.0001 10.0923C36.0487 6.55051 29.7685 7.76491 28.7808 15.8349C34.4841 21.6703 40.2286 18.8774 46.0001 10.0923Z" fill="#2196F3"/>
<path d="M38.0851 6.89635C38.5466 4.94082 38.7861 2.6299 38.8219 0C28.5017 2.27885 23.8473 6.6337 27.3584 13.9782C27.5333 14.0198 27.7011 14.0536 27.8698 14.0883C28.6905 8.34132 32.3031 6.2133 38.0851 6.89635Z" fill="#2196F3"/>
</g>
<defs>
<clipPath id="clip0">
<rect width="46" height="55" fill="white"/>
</clipPath>
</defs>
</svg> -->

<!-- <svg version="1.1" id="Layer_1" xmlns="http://www.w3.org/2000/svg" xmlns:xlink="http://www.w3.org/1999/xlink" x="0px" y="0px"
	 width="100%" viewBox="0 0 62 86" enable-background="new 0 0 62 86" xml:space="preserve">
<path fill="#65F4A8" opacity="1.000000" stroke="none" 
	d="
M1.000000,64.000000 
	C1.000000,60.307091 1.000000,56.614182 1.294721,52.799938 
	C2.057359,51.875629 2.732315,51.127132 2.960220,50.261005 
	C4.681027,43.721268 7.510769,37.940525 12.374490,32.988605 
	C19.412142,25.823336 28.076786,21.779406 37.971916,18.419844 
	C28.250538,16.226093 19.297821,13.467444 9.760218,15.928934 
	C6.680609,16.723730 4.811832,15.501163 4.907999,11.724000 
	C4.998755,8.159349 4.332987,4.575438 4.000000,1.000000 
	C12.687563,1.000000 21.375126,1.000000 30.193312,1.286170 
	C40.057976,6.124597 49.961094,10.112800 61.009212,10.258262 
	C61.009212,13.206031 60.870110,15.695346 61.100426,18.149998 
	C61.163311,18.820177 62.336403,19.386185 63.000000,20.000000 
	C63.000000,21.388889 63.000000,22.777779 62.664917,24.219904 
	C61.404270,24.514969 60.492149,24.854780 59.551117,24.983961 
	C45.020203,26.978685 31.510551,31.385180 21.655567,42.943295 
	C12.139297,54.104160 15.573452,68.939034 30.433475,72.136108 
	C39.324612,74.048996 47.584789,72.288780 55.865509,69.869926 
	C58.676704,69.048767 60.793785,68.116631 61.633911,71.955742 
	C61.657803,72.064919 62.525669,71.989395 63.000000,72.000000 
	C63.000000,75.030594 63.000000,78.061188 62.616531,81.551903 
	C59.242973,83.017082 56.224339,83.948639 53.286858,85.089195 
	C52.699192,85.317368 52.420925,86.342392 52.000000,87.000000 
	C42.979103,87.000000 33.958210,87.000000 24.806362,86.717079 
	C24.353319,86.054764 24.092876,85.430466 23.700169,85.331619 
	C12.531724,82.520393 5.226425,75.890778 2.710166,64.393799 
	C2.656693,64.149475 1.592624,64.126328 1.000000,64.000000 
z"/>
<path fill="#000000" opacity="1.000000" stroke="none" 
	d="
M63.000000,71.531342 
	C62.525669,71.989395 61.657803,72.064919 61.633911,71.955742 
	C60.793785,68.116631 58.676704,69.048767 55.865509,69.869926 
	C47.584789,72.288780 39.324612,74.048996 30.433475,72.136108 
	C15.573452,68.939034 12.139297,54.104160 21.655567,42.943295 
	C31.510551,31.385180 45.020203,26.978685 59.551117,24.983961 
	C60.492149,24.854780 61.404270,24.514969 62.664917,24.636570 
	C63.000000,40.354229 63.000000,55.708454 63.000000,71.531342 
z"/>
<path fill="#000000" opacity="1.000000" stroke="none" 
	d="
M3.500000,1.000000 
	C4.332987,4.575438 4.998755,8.159349 4.907999,11.724000 
	C4.811832,15.501163 6.680609,16.723730 9.760218,15.928934 
	C19.297821,13.467444 28.250538,16.226093 37.971916,18.419844 
	C28.076786,21.779406 19.412142,25.823336 12.374490,32.988605 
	C7.510769,37.940525 4.681027,43.721268 2.960220,50.261005 
	C2.732315,51.127132 2.057359,51.875629 1.294721,52.339302 
	C1.000000,35.984421 0.983416,19.968796 1.031716,3.953362 
	C1.035550,2.682318 -0.019563,0.391003 3.500000,1.000000 
z"/>
<path fill="#000000" opacity="1.000000" stroke="none" 
	d="
M63.000000,19.530624 
	C62.336403,19.386185 61.163311,18.820177 61.100426,18.149998 
	C60.870110,15.695346 61.009212,13.206031 61.009212,10.258262 
	C49.961094,10.112800 40.057976,6.124597 30.661968,1.286170 
	C41.573994,1.000000 52.147984,1.000000 63.000000,1.000000 
	C63.000000,7.017581 63.000000,13.039415 63.000000,19.530624 
z"/>
<path fill="#000000" opacity="1.000000" stroke="none" 
	d="
M1.000000,64.468735 
	C1.592624,64.126328 2.656693,64.149475 2.710166,64.393799 
	C5.226425,75.890778 12.531724,82.520393 23.700169,85.331619 
	C24.092876,85.430466 24.353319,86.054764 24.337704,86.717079 
	C16.407047,87.000000 8.814095,87.000000 1.000000,87.000000 
	C1.000000,79.647301 1.000000,72.292389 1.000000,64.468735 
z"/>
<path fill="#000000" opacity="1.000000" stroke="none" 
	d="
M52.482956,87.000000 
	C52.420925,86.342392 52.699192,85.317368 53.286858,85.089195 
	C56.224339,83.948639 59.242973,83.017082 62.616531,82.006012 
	C63.000000,83.616570 63.000000,85.233139 63.000000,87.000000 
	C59.656113,87.000000 56.311012,87.000000 52.482956,87.000000 
z"/>
</svg> -->

<svg version="1.0" xmlns="http://www.w3.org/2000/svg"
 width="16.000000pt" height="22.000000pt" viewBox="0 0 16.000000 22.000000"
 preserveAspectRatio="xMidYMid meet">
<metadata>
Created by potrace 1.10, written by Peter Selinger 2001-2011
</metadata>
<g transform="translate(0.000000,22.000000) scale(0.100000,-0.100000)"
fill="#13d8a7" stroke="none">
<path d="M17 214 c-19 -19 -6 -33 27 -27 19 3 36 1 40 -6 4 -6 3 -11 -3 -11
-5 0 -23 -12 -40 -26 -41 -34 -44 -95 -7 -119 33 -22 110 -17 114 7 3 15 -2
17 -27 12 -17 -4 -42 -3 -56 0 -58 15 -15 98 57 113 40 8 37 39 -4 46 -18 3
-47 9 -63 12 -17 4 -33 3 -38 -1z"/>
</g>
</svg>